<?xml version="1.0" encoding="UTF-8"?>
<svg width="831px" height="1025px" viewBox="0 0 831 1025" version="1.1" xmlns="http://www.w3.org/2000/svg" xmlns:xlink="http://www.w3.org/1999/xlink">
    <title>key.shield.fill</title>
    <g id="key.shield.fill" stroke="none" fill="none" transform="translate(0.871, 0.4425)" fill-rule="evenodd" stroke-width="1">
        <g id="Group" transform="translate(90.129, 111.5575)">
            <path d="M325.50037,801 C331.86694,801 341.815192,798.616983 351.763073,793.459321 C578.180993,675.187787 651,616.05202 651,473.573467 L651,174.324171 C651,133.445639 633.493508,120.348282 600.06596,106.457694 C553.510396,87.4072286 404.686688,33.4315616 358.527854,17.5563089 C347.78392,13.9844066 336.642145,12 325.50037,12 C314.358596,12 303.216821,14.3812805 292.870728,17.5563089 C246.313682,32.6378137 97.4910858,87.8043981 50.9340397,106.457694 C17.9064821,119.951482 0,133.445639 0,174.324171 L0,473.573467 C0,616.05202 76.7989007,668.441448 299.237298,793.459321 C309.58339,799.016 319.13343,801 325.50037,801 Z" id="Path" fill="color(display-p3 1.000 0.176 0.333)" fill-rule="nonzero"></path>
            <path d="M325.50037,143 C399.798341,143 459,202.554133 459,276.400917 C459,333.573003 423.240807,380.819215 358.478128,406.228949 L414.50074,463.401774 C418.872623,467.371236 418.872623,474.120061 414.896502,478.089524 L358.478128,534.072249 L399.798341,574.964365 C403.375,578.937523 403.774461,585.686348 399.798341,589.655811 L333.049451,655.562192 C328.679047,660.721754 321.527208,659.531655 317.951289,655.562192 L282.986951,621.019738 C279.013789,616.255644 277.821693,612.68165 277.821693,607.522088 L277.821693,401.464855 C224.977758,381.214683 192,332.381795 192,276.400917 C192,202.157187 251.200919,143 325.50037,143 Z M325.50037,272.430716 C346.955886,272.430716 363.643386,255.358701 363.643386,234.316115 C363.643386,212.876583 346.955886,195.804568 325.50037,195.804568 C304.044854,195.804568 286.960112,212.876583 286.960112,234.316115 C286.960112,255.358701 304.044854,272.430716 325.50037,272.430716 Z" id="Shape" fill="color(display-p3 1.000 1.000 1.000)" fill-rule="nonzero"></path>
        </g>
    </g>
</svg>